<?xml version="1.0" encoding="UTF-8" standalone="no"?>
<!-- Created with Inkscape (http://www.inkscape.org/) -->

<svg
   id="svg3375"
   version="1.1"
   inkscape:version="1.3.2 (091e20e, 2023-11-25, custom)"
   width="1180.88"
   height="590.2511"
   viewBox="0 0 1180.88 590.2511"
   sodipodi:docname="zet-logo.svg"
   xmlns:inkscape="http://www.inkscape.org/namespaces/inkscape"
   xmlns:sodipodi="http://sodipodi.sourceforge.net/DTD/sodipodi-0.dtd"
   xmlns="http://www.w3.org/2000/svg"
   xmlns:svg="http://www.w3.org/2000/svg"
   xmlns:rdf="http://www.w3.org/1999/02/22-rdf-syntax-ns#"
   xmlns:cc="http://creativecommons.org/ns#"
   xmlns:dc="http://purl.org/dc/elements/1.1/">
  <metadata
     id="metadata3381">
    <rdf:RDF>
      <cc:Work
         rdf:about="">
        <dc:format>image/svg+xml</dc:format>
        <dc:type
           rdf:resource="http://purl.org/dc/dcmitype/StillImage" />
      </cc:Work>
    </rdf:RDF>
  </metadata>
  <defs
     id="defs3379" />
  <sodipodi:namedview
     pagecolor="#000000"
     bordercolor="#666666"
     borderopacity="1"
     objecttolerance="10"
     gridtolerance="10"
     guidetolerance="10"
     inkscape:pageopacity="0"
     inkscape:pageshadow="2"
     inkscape:window-width="1920"
     inkscape:window-height="1017"
     id="namedview3377"
     showgrid="false"
     inkscape:zoom="0.74892804"
     inkscape:cx="512.06522"
     inkscape:cy="476.01369"
     inkscape:window-x="-8"
     inkscape:window-y="-8"
     inkscape:window-maximized="1"
     inkscape:current-layer="svg3375"
     inkscape:showpageshadow="0"
     inkscape:pagecheckerboard="true"
     inkscape:deskcolor="#000000" />
  <path
     style="opacity:1;fill:#ffffff;fill-opacity:1"
     d="m 89.046198,589.52591 c 4.18133,-7.002 90.670162,-157.5806 90.670162,-157.8584 0,-0.2154 -20.97314,-0.3916 -46.60699,-0.3916 -36.887592,0 -46.501938,-0.2607 -46.103242,-1.25 0.277061,-0.6875 14.672422,-25.775 31.989682,-55.75 l 31.48593,-54.5 341.61732,-0.25145 c 187.8895,-0.13829 341.6173,-0.0175 341.6173,0.26833 0,0.28588 -14.4382,25.48146 -32.0848,55.99018 l -32.0848,55.47044 -39.9772,0.2612 -39.9772,0.2613 -45.688,79.2244 -45.688,79.2244 -254.809,0.026 c -140.145,0.0137 -254.607493,-0.3123 -254.361162,-0.7248 z m 373.078662,-54.8283 c 7.4753,-12.9681 13.5915,-23.9931 13.5915,-24.5 0,-0.5483 -17.8083,-0.9217 -43.9546,-0.9217 h -43.9545 l 9.2045,-15.9844 9.2046,-15.9845 44.5094,-0.016 44.5094,-0.016 13.1656,-22.75 13.1657,-22.75 -44.3547,-0.2602 -44.3546,-0.2603 9.1796,-15.97009 9.1796,-15.9701 65.8316,-0.0196 65.8315,-0.0188 -1.9757,3.25 c -7.7734,12.78686 -89.1874,154.1442 -89.1874,154.8541 0,0.5141 18.4709,0.8959 43.345,0.8959 40.0461,0 43.4586,-0.1332 44.8367,-1.75 0.8204,-0.9625 21.6942,-36.7325 46.3862,-79.4889 l 44.8945,-77.73881 40.0178,-0.26114 40.0179,-0.26115 13.2509,-22.96312 c 7.2881,-12.62972 13.251,-23.31722 13.251,-23.75 0,-0.43279 -87.0052,-0.78688 -193.3448,-0.78688 h -193.3448 l -44.7611,77.4536 c -24.6185,42.5995 -45.2769,78.1592 -45.9074,79.0215 -0.9874,1.3504 -3.9436,1.5302 -21.3073,1.2964 l -20.1608,-0.2715 44.5244,-77 c 24.4884,-42.35 44.7518,-77.7875 45.0297,-78.75 0.4786,-1.65747 -4.2462,-1.74961 -89.3613,-1.74258 l -89.8666,0.007 -13.25,23.27682 c -7.2875,12.80225 -13.25,23.59446 -13.25,23.98269 0,0.38822 20.88609,0.82281 46.4135,0.96575 l 46.4136,0.25989 -45.3161,78.5 c -24.92383,43.175 -45.10836,78.8375 -44.85451,79.25 0.25385,0.4125 68.56881,0.75 151.81101,0.75 h 151.3495 z"
     id="path3391"
     inkscape:connector-curvature="0" />
  <g
     id="g159"
     transform="matrix(1,0,-0.57567289,1,-77.580152,617.68291)"
     style="fill:#ffffff">
    <path
       id="path149"
       style="fill:#ffffff;fill-rule:evenodd;stroke-width:0.498125;stroke-linecap:round;stroke-linejoin:round"
       d="m 518.44331,-617.68286 v 109.25784 h -89 -39.14454 v 32.13477 7.97461 c 0,121.13348 6e-5,121.13476 128.14454,121.13476 h 39.14453 c 0.53398,0 0.97436,-0.002 1.5039,-0.002 h 87.4961 39.14453 89 89 39.14453 v -270.50003 h -39.14453 -89 -89 -39.14453 -89 z m 39.14453,32.1348 h 89 v 117.23242 c 0,76.5247 0.32378,87.87771 -56.53516,89 h -32.46484 -39.14453 c -89.66181,0.88992 -89,-1.8e-4 -89,-89 v -7.97461 h 89 v 48.48632 h 39.14453 z m 128.14453,0 h 89 89 v 48.48632 h -89 v 32.13477 h 89 v 44.99023 h -89 v 32.13281 h 89 v 48.48829 h -89 -89 z" />
    <path
       id="path150"
       style="fill:#ffffff;fill-rule:evenodd;stroke-width:0.958479;stroke-linecap:round;stroke-linejoin:round"
       d="m 45.009705,-617.67885 v 0 H 5.8651751 -83.134825 -122.2813 v 270.5 H -83.134825 5.8651751 45.009705 c 25.83294,0.48811 46.39436,0.76626 62.865245,-0.002 h 26.13476 39.14453 89 39.14453 v -270.498 h -39.14453 -89 -39.14453 z m 128.144535,32.1329 h 89 v 206.23238 h -89 v -67.64844 c 0.0108,-6.67161 0,-13.77876 0,-21.34961 z m -256.289065,0 H 5.8651751 45.009705 c 88.999815,0 89.000005,2e-4 89.000005,89.00001 v 28.23242 c 0,88.99982 -1.9e-4,89 -89.000005,89 H 5.8651751 -83.134825 Z m 102.13086,48.35157 c -3.796399,-0.026 -8.14607,0.0439 -13.1308599,0.13672 v 109.25781 c 39.1445599,0 39.1445299,1.4e-4 39.1445299,-39.14453 v -30.96875 c 0,-34.25157 0.5613,-39.09985 -26.01367,-39.28125 z" />
  </g>
</svg>
